<?xml version="1.0" encoding="UTF-8"?>
<svg width="225px" height="65px" viewBox="0 0 225 65" version="1.1" xmlns="http://www.w3.org/2000/svg" xmlns:xlink="http://www.w3.org/1999/xlink">
    <!-- Generator: Sketch 54.1 (76490) - https://sketchapp.com -->
    <title>Group</title>
    <desc>Created with Sketch.</desc>
    <defs>
        <linearGradient x1="0%" y1="13.605832%" x2="0%" y2="267.346407%" id="linearGradient-1">
            <stop stop-color="#D62186" offset="0%"></stop>
            <stop stop-color="#15030D" offset="92.6964845%"></stop>
            <stop stop-color="#000000" offset="100%"></stop>
        </linearGradient>
    </defs>
    <g id="Page-1" stroke="none" stroke-width="1" fill="none" fill-rule="evenodd">
        <g id="Artboard" transform="translate(-148.000000, -62.000000)">
            <g id="Group" transform="translate(148.000000, 62.000000)">
                <path d="M22.6336266,0 L24.5411969,0 C24.6305809,0.0181971333 24.7209295,0.0312010347 24.8117953,0.0389473196 C25.9817911,0.0766968935 27.1472888,0.203386036 28.2983521,0.417934698 C30.9714365,0.88635918 33.5469986,1.8055165 35.9167389,3.1367572 C39.1390202,4.93265495 41.8619142,7.51529709 43.8354603,10.647598 C46.1400074,14.2966622 47.2655185,18.315726 47.4721844,22.6134129 C47.5725656,24.710868 47.457971,26.8131614 47.1302193,28.8869273 C46.8311544,30.8454893 46.3113796,32.763302 45.5809689,34.6031954 C44.5716968,37.1725897 43.0867772,39.5252344 41.2053029,41.5358183 C38.1246438,44.8028992 34.3734358,46.8955687 30.0394003,47.9516402 C29.349523,48.1209113 28.649238,48.2362553 27.9757155,48.4744331 C25.4005699,49.3852012 23.0350638,50.6929323 20.7974229,52.2523231 C20.7693052,52.2775369 20.7438905,52.3056529 20.7215958,52.3362096 C20.917854,52.3242258 21.0918102,52.3002583 21.2642795,52.3032542 C22.3669613,52.3213958 23.464144,52.4640961 24.5352497,52.7286788 C26.1418371,53.1340092 27.6953738,53.7288181 29.1636724,54.5007818 C30.6296618,55.2497687 32.0748358,56.0496868 33.5304175,56.8241392 C34.7484673,57.4942662 36.0238226,58.0527597 37.3410978,58.4928821 C39.3230083,59.1205331 41.3138397,59.1999257 43.3106183,58.5707767 C44.6219799,58.1588339 45.7712799,57.4847457 46.6782307,56.4271762 C46.7152117,56.3915459 46.7549892,56.3589839 46.7971751,56.3298079 C47.2030727,56.8615886 47.6000496,57.3783895 48,57.9026804 C47.9539091,57.9760811 47.9226862,58.0345021 47.8825424,58.0869312 C47.4959732,58.6052301 47.1227853,59.1355128 46.7198612,59.64033 C45.8083778,60.8189709 44.7356273,61.86145 43.533639,62.7366419 C42.2032755,63.6992748 40.6561513,64.3134045 39.0315946,64.5237247 C37.5914963,64.6860579 36.135473,64.6325487 34.7109404,64.3649395 C33.0244607,64.0578567 31.3876525,63.5195794 29.8461157,62.7651034 C28.522143,62.1152024 27.2319056,61.3977411 25.9804237,60.615511 C24.7909801,59.8874957 23.6015364,59.1415047 22.3600545,58.497376 C20.9773262,57.7813445 19.5470202,57.2016286 17.9858754,57.0293616 C17.5557277,56.971297 17.1208515,56.9572443 16.6878949,56.9874184 C15.819601,57.068309 15.0524099,57.4368105 14.3372568,57.9296439 C14.2590913,57.9910653 14.1877997,58.0608833 14.1246438,58.1378623 C13.2949441,59.0522061 12.5251375,60.0199417 11.8200966,61.0349437 C11.7695453,61.1083444 11.7130467,61.1772512 11.6535745,61.2566438 L8.84797423,59.0800878 C8.8885955,58.9896085 8.93529025,58.9020237 8.98773386,58.8179424 C9.20332053,58.5183476 9.41295998,58.2187529 9.64936191,57.9296439 C9.98835336,57.525191 10.3496469,57.1372158 10.7020196,56.7432486 C13.5770681,53.5333669 16.960295,50.8257891 20.7141618,48.7305866 C20.7766076,48.6961332 20.834593,48.6556879 20.9371825,48.5912751 C20.8568951,48.5732994 20.8286458,48.5643115 20.7989097,48.5598176 C20.3766572,48.5043926 19.951431,48.4594534 19.5306653,48.3905466 C16.7920587,47.9566514 14.1486566,47.048457 11.7175071,45.7061775 C6.60438607,42.8600272 3.05389667,38.6657005 1.19836451,33.0617804 C0.58461103,31.178835 0.211881286,29.2246707 0.0892082765,27.246646 C0.0689036303,27.0644433 0.0391266269,26.8834391 0,26.7043794 L0,24.0739374 C0.0297360922,23.8762049 0.0758270351,23.6784723 0.0877214719,23.4747479 C0.162515563,22.2322447 0.31646916,20.9958668 0.548630901,19.7732545 C1.11540344,16.6599378 2.24261273,13.6773257 3.87461281,10.9726583 C5.66378727,7.99906846 8.1088836,5.48075782 11.0201958,3.61311288 C14.4345321,1.41885382 18.369335,0.184807111 22.4165531,0.0389473196 C22.4897212,0.0310624304 22.5622549,0.0180484487 22.6336266,0 Z M11.0829652,23.0259893 C11.0420056,25.3570438 11.2093591,27.6871002 11.5830353,29.9884473 C11.9157105,32.0741011 12.4931196,34.1133756 13.3033361,36.0641489 C14.0833854,37.9049534 15.0820282,39.6126696 16.4295223,41.100566 C18.7142734,43.6217654 21.5110722,45.094708 24.9636515,45.2233101 C27.2798441,45.3100418 29.3460017,44.6416099 31.1351744,43.1552089 C32.0942567,42.342743 32.9149242,41.380163 33.5651554,40.3050275 C34.5712844,38.6825475 35.249523,36.9224931 35.7480959,35.0891655 C36.3749644,32.7043357 36.7453743,30.2595301 36.853041,27.79623 C36.9551059,25.8966879 36.9456073,23.9928037 36.8245939,22.0943718 C36.7174097,20.2473537 36.4752138,18.4106291 36.0999415,16.598875 C35.6975185,14.5936443 35.0561373,12.6437547 34.1894944,10.7908452 C33.3450647,9.023314 32.2850361,7.40382475 30.8656756,6.03854895 C28.7695737,4.02129041 26.285693,2.88929284 23.3556419,2.78162597 C21.6370121,2.69309216 19.9272701,3.08015679 18.4148303,3.90016517 C17.1173224,4.62673897 15.9934249,5.62628704 15.1209559,6.82960141 C14.0863798,8.21132631 13.3557386,9.74857004 12.7912883,11.3695547 C12.0621443,13.4630772 11.6459183,15.63735 11.3883972,17.8385394 C11.1960382,19.5611827 11.094088,21.2927013 11.0829652,23.0259893 L11.0829652,23.0259893 Z" id="Shape" fill="url(#linearGradient-1)" fill-rule="nonzero"></path>
                <text id="DanahZohar" font-family="Futura-CondensedExtraBold, Futura" font-size="31" font-style="condensed" font-weight="700">
                    <tspan x="51" y="62" fill="#C61A7A">Danah</tspan>
                    <tspan x="139.050293" y="62" font-family="Futura-Medium, Futura" font-weight="400" fill="#605B81">Zohar</tspan>
                </text>
                <text id="’s-for-great-leaders" font-family="Futura-CondensedExtraBold, Futura" font-size="13" font-style="condensed" font-weight="700" fill="#D10175">
                    <tspan x="54" y="32">’s for great leadership</tspan>
                </text>
            </g>
        </g>
    </g>
</svg>