<?xml version="1.0" encoding="UTF-8"?>
<svg width="194px" height="70px" viewBox="0 0 194 70" version="1.1" xmlns="http://www.w3.org/2000/svg" xmlns:xlink="http://www.w3.org/1999/xlink">
    <!-- Generator: Sketch 54.1 (76490) - https://sketchapp.com -->
    <title>Group</title>
    <desc>Created with Sketch.</desc>
    <defs>
        <linearGradient x1="15.4897815%" y1="66.584072%" x2="246.600152%" y2="138.571358%" id="linearGradient-1">
            <stop stop-color="#D62186" offset="0%"></stop>
            <stop stop-color="#000000" offset="100%"></stop>
        </linearGradient>
    </defs>
    <g id="Page-1" stroke="none" stroke-width="1" fill="none" fill-rule="evenodd">
        <g id="Artboard" transform="translate(-140.000000, -59.000000)">
            <g id="Group" transform="translate(140.000000, 59.000000)">
                <path d="M24.5197621,0 L26.5862966,0 C26.6831293,0.0197135611 26.7810069,0.0338011209 26.8794449,0.0421929295 C28.1469404,0.0830883013 29.4095628,0.220334872 30.6565481,0.45276259 C33.5523896,0.960222445 36.3425818,1.9559762 38.9098005,3.39815363 C42.4006052,5.34370953 45.350407,8.14157185 47.4884153,11.5348978 C49.9850081,15.4880507 51.2043117,19.8420365 51.4281997,24.497864 C51.5369461,26.770107 51.4128019,29.0475915 51.0577376,31.2941713 C50.7337506,33.4159467 50.1706613,35.4935771 49.379383,37.4867951 C48.2860049,40.2703055 46.677342,42.8190039 44.6390782,44.9971365 C41.3016974,48.5364742 37.2378887,50.8035327 32.5426837,51.9476103 C31.7953166,52.1309872 31.0366745,52.2559432 30.3070252,52.5139692 C27.5172841,53.5006346 24.9546525,54.9173434 22.5305414,56.6066834 C22.5000807,56.6339983 22.472548,56.6644573 22.4483955,56.6975604 C22.6610085,56.684578 22.849461,56.6586131 23.0363028,56.6618587 C24.2308747,56.6815121 25.4194893,56.8361041 26.5798538,57.1227353 C28.3203236,57.5618433 30.0033216,58.2062196 31.5939784,59.0425136 C33.1821336,59.8539161 34.7477388,60.720494 36.324619,61.5594842 C37.6441729,62.2854551 39.0258078,62.8904897 40.4528559,63.3672889 C42.5999257,64.0472442 44.7566596,64.1332529 46.9198365,63.4516748 C48.3404783,63.0054034 49.5855532,62.2751412 50.5680833,61.1294408 C50.608146,61.0908414 50.6512383,61.0555659 50.6969397,61.0239585 C51.1366621,61.6000543 51.5667204,62.159922 52,62.7279037 C51.9500681,62.8074212 51.9162433,62.8707106 51.8727543,62.9275088 C51.453971,63.4889993 51.0496841,64.0634722 50.613183,64.6103575 C49.6257427,65.8872185 48.4635963,67.0165708 47.1614422,67.9646954 C45.7202151,69.0075477 44.0441639,69.6728549 42.2842275,69.9007018 C40.724121,70.0765628 39.1467624,70.0185944 37.6035188,69.7286844 C35.7764991,69.3960114 34.0032902,68.8128777 32.333292,67.9955287 C30.8989883,67.2914693 29.501231,66.5142195 28.1454591,65.6668036 C26.8568951,64.8781203 25.5683311,64.0699635 24.2233924,63.3721573 C22.7254367,62.5964565 21.1759385,61.968431 19.4846983,61.7818084 C19.0187051,61.7189051 18.5475892,61.7036813 18.0785528,61.7363699 C17.1379011,61.8240014 16.3067774,62.2232114 15.5320282,62.7571142 C15.4473489,62.8236541 15.3701164,62.8992903 15.3016974,62.9826841 C14.4028561,63.9732233 13.568899,65.0216035 12.8051047,66.121189 C12.7503407,66.2007064 12.6891339,66.2753554 12.6247057,66.3613641 L9.58530541,64.0034285 C9.62931179,63.9054092 9.67989777,63.8105257 9.73671168,63.7194376 C9.97026391,63.3948766 10.1973733,63.0703156 10.4534754,62.7571142 C10.8207161,62.3189569 11.2121175,61.8986504 11.5938545,61.4718527 C14.7084904,57.9944808 18.373653,55.0612715 22.440342,52.7914688 C22.5079916,52.7541443 22.5708091,52.7103286 22.6819477,52.640548 C22.5949696,52.6210743 22.5643662,52.6113375 22.5321521,52.6064691 C22.0747119,52.5464253 21.6140503,52.4977411 21.1582208,52.4230921 C18.1913969,51.953039 15.3277113,50.9691617 12.6939661,49.5150256 C7.15475158,46.4316961 3.30838806,41.8878422 1.29822822,35.8169287 C0.633328616,33.7770713 0.22953806,31.6600599 0.0966422996,29.5171998 C0.0746455995,29.3198135 0.0423871792,29.1237257 0,28.9297444 L0,26.0800989 C0.0322140999,25.8658886 0.0821459547,25.6516783 0.0950315946,25.4309769 C0.176058527,24.0849317 0.34284159,22.7455224 0.594350142,21.4210258 C1.20835373,18.0482659 2.42949712,14.8171028 4.19749721,11.8870465 C6.13576954,8.6656575 8.7846239,5.93748764 11.9385454,3.91420561 C15.6374098,1.53709163 19.900113,0.200207704 24.2845992,0.0421929295 C24.3638647,0.0336509663 24.4424428,0.0195524861 24.5197621,0 Z M12.0065457,24.9448217 C11.9621727,27.4701308 12.1434723,29.9943585 12.5482882,32.4874845 C12.9086864,34.7469428 13.5342129,36.9561569 14.4119474,39.0694946 C15.2570009,41.0636995 16.3388639,42.9137254 17.7986492,44.5256132 C20.2737962,47.2569125 23.3036616,48.8526004 27.0439558,48.9919193 C29.5531645,49.0858786 31.7915019,48.3617441 33.7297723,46.7514763 C34.7687781,45.8713049 35.6578345,44.8285099 36.3622517,43.6637797 C37.4522247,41.9060931 38.1869833,39.9993675 38.7271038,38.0132626 C39.4062114,35.429697 39.8074889,32.7811576 39.9241278,30.1125825 C40.0346981,28.0547452 40.0244079,25.992204 39.8933101,23.9355694 C39.7771938,21.9346331 39.514815,19.9448482 39.10827,17.9821146 C38.6723117,15.8097813 37.977482,13.6974009 37.0386189,11.6900823 C36.1238201,9.77525683 34.9754557,8.02081014 33.4378153,6.54176136 C31.1670382,4.35639794 28.4761674,3.13006725 25.3019454,3.01342813 C23.4400965,2.91751651 21.587876,3.33683653 19.9493995,4.22517894 C18.5437659,5.01230055 17.3262103,6.0951443 16.3810355,7.39873486 C15.2602448,8.89560351 14.4687168,10.5609509 13.857229,12.3170176 C13.067323,14.5850003 12.6164115,16.9404625 12.3374303,19.3250844 C12.1290413,21.1912812 12.0185954,23.0670931 12.0065457,24.9448217 L12.0065457,24.9448217 Z" id="Shape" fill="url(#linearGradient-1)" fill-rule="nonzero"></path>
                <text id="DanahZohar" font-family="Futura-CondensedExtraBold, Futura" font-size="27" font-style="condensed" font-weight="700">
                    <tspan x="43" y="62" fill="#C61A7A">Danah</tspan>
                    <tspan x="119.688965" y="62" font-family="Futura-Medium, Futura" font-weight="400" fill="#605B81">Zohar</tspan>
                </text>
                <text id="’s-for-great-leaders" font-family="Futura-CondensedExtraBold, Futura" font-size="13" font-style="condensed" font-weight="700" fill="#D10175">
                    <tspan x="62" y="31">’s for great leadership</tspan>
                </text>
            </g>
        </g>
    </g>
</svg>